<svg version="1.1" preserveAspectRatio="none" xmlns="http://www.w3.org/2000/svg" width="500" height="500" viewBox="0 0 500 500"><rect width="100%" height="100%" fill="#F9F7F7" fill-opacity="1"/><svg viewBox="464.2835 359.0189 292.5858 170.7" width="333" height="194.27839628580742" x="83.5px" y="152.8608px" xmlns="http://www.w3.org/2000/svg" xmlns:xlink="http://www.w3.org/1999/xlink" preserveAspectRatio="none"><defs></defs><style>.aq6WP-wJgVstrokeColor-str {stroke:#0C0C0C;stroke-opacity:1;}.companyName {fill:#2C3E57;fill-opacity:1;}.icon1 {fill:#9C8B58;fill-opacity:1;}.icon3 {fill:#C8B889;fill-opacity:1;}.icon3-str {stroke:#C8B889;stroke-opacity:1;}.shape {fill:#9C8B58;fill-opacity:1;}.shapeStroke-str {stroke:#2C3E57;stroke-opacity:1;}</style><g opacity="1" transform="rotate(0 464.2835 514.0189)">
<svg width="106.2929" height="1.4" x="464.2835" y="514.0189" version="1.1" preserveAspectRatio="none" viewBox="0 0 106.2929 1.4">
  <defs><rect x="0" y="0" width="106.2929" height="1.4" rx="0px" ry="0px" id="id-5kldYRpCP1708180890867"></rect></defs><use class="icon1 shapeStroke-str" style="stroke-width:0;" xlink:href="#id-5kldYRpCP1708180890867"></use>
</svg>
</g><g opacity="1" transform="rotate(0 587.1434 497.7189)">
<svg width="46.8661" height="32" x="587.1434" y="497.7189" version="1.1" preserveAspectRatio="none" viewBox="19.99881172180176 45.37599182128906 160.0006866455078 109.24801635742188">
  <g transform="matrix(1 0 0 1 0 0)"><g><path d="M120.23 154.624c-6.238 0-12.903-.92-19.976-2.761a2.286 2.286 0 0 1-1.709-2.033c-1.549-19.328 2.791-34.715 12.903-45.73 12.783-13.927 35.069-21.078 66.247-21.254.665.166 1.334.296 1.768.818.439.522.622 1.212.499 1.883-5.591 30.676-16.503 51.385-32.436 61.552-7.852 5.011-16.988 7.525-27.296 7.525zm-17.236-6.797c16.793 4.065 30.936 2.514 42.066-4.589 14.356-9.157 24.399-27.914 29.879-55.776-28.387.558-48.602 7.193-60.116 19.735-8.931 9.733-12.907 23.398-11.829 40.63z" data-color="1" class="icon1"></path><path d="M79.769 154.624c-10.31 0-19.443-2.51-27.297-7.525-15.934-10.167-26.847-30.876-32.436-61.552a2.29 2.29 0 0 1 2.255-2.701h.013c31.178.177 53.468 7.329 66.249 21.254 10.107 11.015 14.449 26.402 12.898 45.73a2.286 2.286 0 0 1-1.709 2.033c-7.071 1.84-13.737 2.761-19.973 2.761zM25.063 87.462c5.48 27.861 15.523 46.619 29.875 55.776 11.136 7.108 25.279 8.65 42.063 4.589 1.084-17.232-2.891-30.897-11.822-40.63C73.667 94.655 53.45 88.02 25.063 87.462zm74.105 62.185h.043-.043z" data-color="1" class="icon1"></path><path d="M101.456 150.277c-.464 0-.929-.145-1.329-.426-15.8-11.237-24.795-24.45-26.736-39.275-2.452-18.742 6.398-40.412 26.302-64.411.869-1.052 2.659-1.052 3.528 0 19.904 23.999 28.754 45.668 26.3 64.411-1.939 14.824-10.934 28.038-26.734 39.275a2.325 2.325 0 0 1-1.331.426zm0-99.032c-17.82 22.107-25.731 41.857-23.523 58.739 1.715 13.099 9.626 24.923 23.523 35.171 13.895-10.248 21.808-22.073 23.521-35.171 2.212-16.882-5.701-36.632-23.521-58.739z" data-color="1" class="icon1"></path></g></g>
</svg>
</g><g opacity="1" transform="rotate(0 464.2835 359.0189)">
<svg width="292.5858" height="120" x="464.2835" y="359.0189" version="1.1" preserveAspectRatio="none" viewBox="-0.4 -28.56 71.00000000000001 29.12">
  <g transform="matrix(1 0 0 1 0 0)" class="companyName"><path id="id-D6z1nYkh3" d="M26.88-28L26.88-27.60L26.32-27.60Q25.12-27.60 24.06-26.94Q23-26.28 22.28-25.28L22.28-25.28L14.40-12.48L14.40-2.92Q14.40-1.88 15.14-1.14Q15.88-0.40 16.96-0.40L16.96-0.40L17.44-0.40L17.44 0L8.72 0L8.72-0.40L9.24-0.40Q10.28-0.40 11.02-1.12Q11.76-1.84 11.80-2.88L11.80-2.88L11.80-12.52L4.16-25.28Q3.56-26.24 2.46-26.92Q1.36-27.60 0.16-27.60L0.16-27.60L-0.40-27.60L-0.40-28L9.44-28L9.44-27.60L8.92-27.60Q8.04-27.60 7.56-26.80L7.56-26.80Q7.32-26.36 7.32-25.94Q7.32-25.52 7.52-25.12L7.52-25.12L13.52-13.92L19.92-25.16Q20.12-25.56 20.12-25.96Q20.12-26.36 19.84-26.80L19.84-26.80Q19.36-27.60 18.48-27.60L18.48-27.60L18-27.60L18-28L26.88-28Z M52.92-15L52.32-15Q51.48-15 51.14-14.58Q50.80-14.16 50.80-13.78Q50.80-13.40 50.98-12.52Q51.16-11.64 51.16-10.20L51.16-10.20Q51.16-7.04 49.68-4.44L49.68-4.44Q51.12-3.20 51.96-2.54Q52.80-1.88 54.16-1.18Q55.52-0.48 56.68-0.40L56.68-0.40L56.68 0Q56.64 0 56.02 0Q55.40 0 55.14 0Q54.88 0 54.18-0.04Q53.48-0.08 53.04-0.18Q52.60-0.28 51.88-0.44Q51.16-0.60 50.60-0.88L50.60-0.88Q49.16-1.52 48.08-2.36L48.08-2.36Q45.24 0.40 40.68 0.40L40.68 0.40Q34.84 0.40 31.64-2.04Q28.44-4.48 28.44-8.96L28.44-8.96Q28.44-13.92 33.28-16.36L33.28-16.36Q31.76-18.80 31.76-21.72L31.76-21.72Q31.76-24.68 33.92-26.60L33.92-26.60Q36.16-28.56 39.80-28.56L39.80-28.56Q41.84-28.56 43.68-27.78Q45.52-27 46.60-25.72L46.60-25.72L45.88-21.20L45.48-21.20Q45.48-24.08 43.92-25.72L43.92-25.72Q42.36-27.36 39.94-27.36Q37.52-27.36 36.02-25.76Q34.52-24.16 34.52-21.76Q34.52-19.36 36-17.24Q37.48-15.12 41.80-11.28Q46.12-7.44 48.12-5.76L48.12-5.76Q48.96-7.60 48.96-9.56Q48.96-11.52 48.10-13.26Q47.24-15 45.56-15L45.56-15L44.96-15L44.96-15.40L52.92-15.40L52.92-15ZM46.72-3.52L46.72-3.52Q36.48-11.96 33.92-15.40L33.92-15.40Q31.36-13 31.36-9.14Q31.36-5.28 33.82-3.04Q36.28-0.80 40.68-0.80L40.68-0.80Q44.36-0.80 46.72-3.52Z M56.32-1.64L56.32-1.64Q56.20-2.20 56.20-3.80Q56.20-5.40 56.80-7.20L56.80-7.20L57.16-7.20Q57.12-6.76 57.12-6.32L57.12-6.32Q57.12-3.88 58.60-2.26Q60.08-0.64 62.52-0.64L62.52-0.64Q65.04-0.64 66.66-2.16Q68.28-3.68 68.28-5.98Q68.28-8.28 66.72-9.72L66.72-9.72L59.04-16.84Q56.88-18.84 56.88-21.68Q56.88-24.52 58.78-26.54Q60.68-28.56 63.92-28.56L63.92-28.56Q65.44-28.56 67.36-28.16L67.36-28.16L68.92-28.16L68.92-23.24L68.56-23.24Q68.56-25.12 67.26-26.24Q65.96-27.36 63.92-27.36Q61.88-27.36 60.50-26Q59.12-24.64 59.12-22.60Q59.12-20.56 60.72-19.08L60.72-19.08L68.60-11.80Q70.60-9.96 70.60-6.76Q70.60-3.56 68.56-1.50Q66.52 0.56 63.12 0.56L63.12 0.56Q61.36 0.56 59.38 0.02Q57.40-0.52 56.32-1.64Z"/></g>
</svg>
</g><g opacity="1" transform="rotate(0 650.5764 514.0189)">
<svg width="106.2929" height="1.4" x="650.5764" y="514.0189" version="1.1" preserveAspectRatio="none" viewBox="0 0 106.2929 1.4">
  <defs><rect x="0" y="0" width="106.2929" height="1.4" rx="0px" ry="0px" id="id-q6WP-wJgV1708180890867"></rect></defs><use class="icon1 aq6WP-wJgVstrokeColor-str" style="stroke-width:0;" xlink:href="#id-q6WP-wJgV1708180890867"></use>
</svg>
</g></svg></svg>